<svg width="469" height="477" viewBox="0 0 469 477" fill="none" xmlns="http://www.w3.org/2000/svg">
<path fill-rule="evenodd" clip-rule="evenodd" d="M316.855 104.281C360.887 103.364 410.023 103.093 440.122 135.243C469.74 166.88 473.875 217.055 461.245 258.511C450.892 292.491 407.457 298.878 382.551 324.207C357.185 350.004 352.308 398.141 316.855 405.352C279.479 412.954 242.371 386.766 217.611 357.755C194.528 330.708 194.625 293.934 191.531 258.511C187.959 217.619 172.728 172.125 198.614 140.269C225.623 107.03 274.035 105.172 316.855 104.281Z" fill="#EED0EA" stroke="#EED0EA"/>
<path fill-rule="evenodd" clip-rule="evenodd" d="M185.413 7.45354C231.222 -1.76364 290.729 -9.46371 318.355 29.669C345.925 68.7236 306.402 120.224 298.774 168.032C293.278 202.479 304.257 242.342 280.491 266.988C256.743 291.614 218.397 279.35 185.413 285.588C137.869 294.58 84.9039 343.538 48.107 310.939C11.8553 278.823 42.989 216.534 52.7204 168.032C59.7719 132.887 73.0528 101.721 95.5463 74.5001C120.53 44.2659 147.795 15.0228 185.413 7.45354Z" fill="#F5E3F3"/>
<path fill-rule="evenodd" clip-rule="evenodd" d="M190.139 200.491C229.422 199.173 264.523 153.973 299.758 171.372C337.606 190.062 348.806 238.906 352.934 280.88C357.566 327.968 353.951 377.888 323.647 414.252C291.008 453.418 240.81 482.137 190.139 476.228C142.395 470.661 118.049 420.798 84.5404 386.37C51.865 352.798 -0.691693 327.699 0.00689366 280.88C0.70335 234.203 44.608 196.683 87.6421 178.488C121.097 164.343 153.831 201.709 190.139 200.491Z" fill="#EBC7E6"/>
</svg>
